<svg width="84" height="83" viewBox="0 0 84 83" fill="none" xmlns="http://www.w3.org/2000/svg">
<path d="M42.2499 41.4997V72.6247M42.2499 41.4997L33.6041 48.4163M42.2499 41.4997L50.8958 48.4163M18.1592 31.5293C14.8883 32.3524 12.0306 34.3415 10.1229 37.1229C8.2152 39.9044 7.38884 43.2868 7.79908 46.6346C8.20933 49.9823 9.82793 53.0651 12.3508 55.3036C14.8737 57.5422 18.1271 58.7824 21.4999 58.7913H24.9583" stroke="#181D27" stroke-width="4" stroke-linecap="round" stroke-linejoin="round"/>
<path d="M55.4955 24.6854C54.3134 20.0048 51.3959 15.9488 47.3342 13.3395C43.2726 10.7303 38.3707 9.76303 33.6224 10.6339C28.874 11.5047 24.6345 14.1485 21.7631 18.0293C18.8917 21.9101 17.6034 26.7375 18.1593 31.5329C18.1593 31.5329 18.6884 34.5832 19.7709 36.3123" stroke="#181D27" stroke-width="4" stroke-linecap="round" stroke-linejoin="round"/>
<path d="M59.5416 58.7913C61.9833 58.7897 64.397 58.2709 66.6238 57.2692C68.8505 56.2675 70.8399 54.8055 72.461 52.9795C74.082 51.1535 75.298 49.005 76.0288 46.6752C76.7596 44.3454 76.9887 41.8872 76.7011 39.4625C76.4134 37.0378 75.6155 34.7015 74.3598 32.6074C73.1042 30.5133 71.4192 28.7088 69.4159 27.3128C67.4127 25.9168 65.1364 24.9609 62.7371 24.5081C60.3377 24.0552 57.8697 24.1156 55.4953 24.6853L50.8958 25.9372" stroke="#181D27" stroke-width="4" stroke-linecap="round" stroke-linejoin="round"/>
</svg>
