<?xml version="1.0" standalone="no"?>
<!DOCTYPE svg PUBLIC "-//W3C//DTD SVG 20010904//EN"
 "http://www.w3.org/TR/2001/REC-SVG-20010904/DTD/svg10.dtd">
<svg version="1.0" xmlns="http://www.w3.org/2000/svg"
 width="24.000000pt" height="24.000000pt" viewBox="0 0 24.000000 24.000000"
 preserveAspectRatio="xMidYMid meet">

<g transform="translate(0.000000,24.000000) scale(0.100000,-0.100000)"
fill="#000000" stroke="none">
<path d="M42 202 c-9 -6 -12 -31 -10 -88 l3 -79 85 0 85 0 0 85 0 85 -75 3
c-41 1 -81 -2 -88 -6z m108 -82 l0 -70 -50 0 -50 0 0 70 0 70 50 0 50 0 0 -70z"/>
<path d="M90 135 c-10 -12 -10 -18 0 -30 19 -23 27 -18 27 15 0 33 -8 38 -27
15z"/>
</g>
</svg>
