<svg width="24" height="24" viewBox="0 0 24 24" fill="none" xmlns="http://www.w3.org/2000/svg">
<g clip-path="url(#clip0_964_4057)">
<path d="M14.647 4.08076C14.6738 4.19149 14.7264 4.29433 14.8005 4.38091C14.8745 4.46749 14.968 4.53536 15.0732 4.57902C15.1785 4.62267 15.2925 4.64088 15.4061 4.63214C15.5197 4.62341 15.6297 4.58799 15.727 4.52876C18.166 3.04376 20.957 5.83376 19.472 8.27276C19.4128 8.37003 19.3773 8.47989 19.3685 8.59343C19.3597 8.70697 19.3778 8.82099 19.4214 8.92621C19.465 9.03144 19.5327 9.1249 19.6192 9.19902C19.7056 9.27313 19.8084 9.32581 19.919 9.35276C22.694 10.0258 22.694 13.9728 19.919 14.6468C19.8083 14.6736 19.7054 14.7262 19.6189 14.8002C19.5323 14.8743 19.4644 14.9678 19.4207 15.073C19.3771 15.1782 19.3589 15.2923 19.3676 15.4059C19.3764 15.5195 19.4118 15.6294 19.471 15.7268C20.956 18.1658 18.166 20.9568 15.727 19.4718C15.6297 19.4125 15.5199 19.3771 15.4063 19.3683C15.2928 19.3595 15.1788 19.3776 15.0736 19.4212C14.9683 19.4647 14.8749 19.5325 14.8007 19.6189C14.7266 19.7054 14.674 19.8081 14.647 19.9188C13.974 22.6938 10.027 22.6938 9.35301 19.9188C9.32618 19.808 9.27359 19.7052 9.19953 19.6186C9.12546 19.532 9.03201 19.4642 8.92677 19.4205C8.82153 19.3768 8.70747 19.3586 8.59387 19.3674C8.48027 19.3761 8.37034 19.4115 8.27301 19.4708C5.83401 20.9558 3.04301 18.1658 4.52801 15.7268C4.58724 15.6295 4.62269 15.5196 4.63148 15.4061C4.64028 15.2926 4.62216 15.1785 4.57861 15.0733C4.53506 14.9681 4.4673 14.8746 4.38084 14.8005C4.29438 14.7264 4.19165 14.6737 4.08101 14.6468C1.30601 13.9738 1.30601 10.0268 4.08101 9.35276C4.19174 9.32593 4.29457 9.27335 4.38115 9.19928C4.46773 9.12522 4.53561 9.03177 4.57926 8.92653C4.62292 8.82129 4.64112 8.70723 4.63239 8.59363C4.62365 8.48003 4.58823 8.37009 4.52901 8.27276C3.04401 5.83376 5.83401 3.04276 8.27301 4.52776C8.37017 4.58744 8.48009 4.62326 8.59376 4.63228C8.70744 4.6413 8.82163 4.62327 8.92699 4.57966C9.03235 4.53605 9.12589 4.46811 9.19993 4.38139C9.27398 4.29467 9.32644 4.19165 9.35301 4.08076C10.026 1.30576 13.973 1.30576 14.647 4.08076ZM12 8.99976C11.2044 8.99976 10.4413 9.31583 9.87869 9.87844C9.31608 10.4411 9.00001 11.2041 9.00001 11.9998C9.00001 12.7954 9.31608 13.5585 9.87869 14.1211C10.4413 14.6837 11.2044 14.9998 12 14.9998C12.7957 14.9998 13.5587 14.6837 14.1213 14.1211C14.6839 13.5585 15 12.7954 15 11.9998C15 11.2041 14.6839 10.4411 14.1213 9.87844C13.5587 9.31583 12.7957 8.99976 12 8.99976Z" fill="black"/>
</g>
<defs>
<clipPath id="clip0_964_4057">
<rect width="24" height="24" fill="white"/>
</clipPath>
</defs>
</svg>
